<svg xmlns="http://www.w3.org/2000/svg" xmlns:xlink="http://www.w3.org/1999/xlink" width="19" zoomAndPan="magnify" viewBox="0 0 14.25 14.25" height="19" preserveAspectRatio="xMidYMid meet" version="1.0"><defs><clipPath id="1f5a9ebbf7"><path d="M 0 0 L 12.824219 0 L 12.824219 12.824219 L 0 12.824219 Z M 0 0 " clip-rule="nonzero"/></clipPath><clipPath id="68e5d1cc63"><path d="M 0 0 L 12.824219 0 L 12.824219 12.824219 L 0 12.824219 Z M 0 0 " clip-rule="nonzero"/></clipPath></defs><g clip-path="url(#1f5a9ebbf7)"><path fill="#ffa500" d="M 12.992188 6.496094 C 12.992188 6.921875 12.949219 7.34375 12.867188 7.761719 C 12.785156 8.179688 12.660156 8.585938 12.496094 8.980469 C 12.335938 9.375 12.132812 9.75 11.898438 10.105469 C 11.660156 10.460938 11.390625 10.789062 11.089844 11.089844 C 10.789062 11.390625 10.460938 11.660156 10.105469 11.898438 C 9.75 12.132812 9.375 12.335938 8.980469 12.496094 C 8.585938 12.660156 8.179688 12.785156 7.761719 12.867188 C 7.34375 12.949219 6.921875 12.992188 6.496094 12.992188 C 6.070312 12.992188 5.648438 12.949219 5.230469 12.867188 C 4.808594 12.785156 4.402344 12.660156 4.011719 12.496094 C 3.617188 12.335938 3.242188 12.132812 2.886719 11.898438 C 2.53125 11.660156 2.203125 11.390625 1.902344 11.089844 C 1.601562 10.789062 1.332031 10.460938 1.09375 10.105469 C 0.859375 9.75 0.65625 9.375 0.496094 8.980469 C 0.332031 8.585938 0.207031 8.179688 0.125 7.761719 C 0.0429688 7.34375 0 6.921875 0 6.496094 C 0 6.070312 0.0429688 5.648438 0.125 5.230469 C 0.207031 4.808594 0.332031 4.402344 0.496094 4.011719 C 0.65625 3.617188 0.859375 3.242188 1.09375 2.886719 C 1.332031 2.53125 1.601562 2.203125 1.902344 1.902344 C 2.203125 1.601562 2.53125 1.332031 2.886719 1.09375 C 3.242188 0.859375 3.617188 0.65625 4.011719 0.496094 C 4.402344 0.332031 4.808594 0.207031 5.230469 0.125 C 5.648438 0.0429688 6.070312 0 6.496094 0 C 6.921875 0 7.34375 0.0429688 7.761719 0.125 C 8.179688 0.207031 8.585938 0.332031 8.980469 0.496094 C 9.375 0.65625 9.75 0.859375 10.105469 1.09375 C 10.460938 1.332031 10.789062 1.601562 11.089844 1.902344 C 11.390625 2.203125 11.660156 2.53125 11.898438 2.886719 C 12.132812 3.242188 12.335938 3.617188 12.496094 4.011719 C 12.660156 4.402344 12.785156 4.808594 12.867188 5.230469 C 12.949219 5.648438 12.992188 6.070312 12.992188 6.496094 Z M 12.992188 6.496094 " fill-opacity="1" fill-rule="nonzero"/></g><path fill="#f2f2f2" d="M 10.0625 5.269531 C 10.410156 4.921875 10.410156 4.355469 10.0625 4.007812 C 9.714844 3.660156 9.152344 3.660156 8.804688 4.011719 L 5.722656 7.09375 L 4.183594 5.554688 C 3.835938 5.207031 3.269531 5.207031 2.921875 5.554688 C 2.574219 5.902344 2.574219 6.464844 2.921875 6.8125 L 5.089844 8.980469 C 5.257812 9.148438 5.484375 9.242188 5.722656 9.242188 C 5.957031 9.242188 6.183594 9.148438 6.351562 8.980469 Z M 10.0625 5.269531 " fill-opacity="1" fill-rule="nonzero"/><g clip-path="url(#68e5d1cc63)"><path fill="#ffa500" d="M 12.992188 6.496094 C 12.992188 6.921875 12.949219 7.34375 12.867188 7.761719 C 12.785156 8.179688 12.660156 8.585938 12.496094 8.980469 C 12.335938 9.375 12.132812 9.75 11.898438 10.105469 C 11.660156 10.460938 11.390625 10.789062 11.089844 11.089844 C 10.789062 11.390625 10.460938 11.660156 10.105469 11.898438 C 9.75 12.132812 9.375 12.335938 8.980469 12.496094 C 8.585938 12.660156 8.179688 12.785156 7.761719 12.867188 C 7.34375 12.949219 6.921875 12.992188 6.496094 12.992188 C 6.070312 12.992188 5.648438 12.949219 5.230469 12.867188 C 4.808594 12.785156 4.402344 12.660156 4.011719 12.496094 C 3.617188 12.335938 3.242188 12.132812 2.886719 11.898438 C 2.53125 11.660156 2.203125 11.390625 1.902344 11.089844 C 1.601562 10.789062 1.332031 10.460938 1.09375 10.105469 C 0.859375 9.75 0.65625 9.375 0.496094 8.980469 C 0.332031 8.585938 0.207031 8.179688 0.125 7.761719 C 0.0429688 7.34375 0 6.921875 0 6.496094 C 0 6.070312 0.0429688 5.648438 0.125 5.230469 C 0.207031 4.808594 0.332031 4.402344 0.496094 4.011719 C 0.65625 3.617188 0.859375 3.242188 1.09375 2.886719 C 1.332031 2.53125 1.601562 2.203125 1.902344 1.902344 C 2.203125 1.601562 2.53125 1.332031 2.886719 1.09375 C 3.242188 0.859375 3.617188 0.65625 4.011719 0.496094 C 4.402344 0.332031 4.808594 0.207031 5.230469 0.125 C 5.648438 0.0429688 6.070312 0 6.496094 0 C 6.921875 0 7.34375 0.0429688 7.761719 0.125 C 8.179688 0.207031 8.585938 0.332031 8.980469 0.496094 C 9.375 0.65625 9.75 0.859375 10.105469 1.09375 C 10.460938 1.332031 10.789062 1.601562 11.089844 1.902344 C 11.390625 2.203125 11.660156 2.53125 11.898438 2.886719 C 12.132812 3.242188 12.335938 3.617188 12.496094 4.011719 C 12.660156 4.402344 12.785156 4.808594 12.867188 5.230469 C 12.949219 5.648438 12.992188 6.070312 12.992188 6.496094 Z M 12.992188 6.496094 " fill-opacity="1" fill-rule="nonzero"/></g><path fill="#f2f2f2" d="M 10.0625 5.269531 C 10.410156 4.921875 10.410156 4.355469 10.0625 4.007812 C 9.714844 3.660156 9.152344 3.660156 8.804688 4.011719 L 5.722656 7.09375 L 4.183594 5.554688 C 3.835938 5.207031 3.269531 5.207031 2.921875 5.554688 C 2.574219 5.902344 2.574219 6.464844 2.921875 6.8125 L 5.089844 8.980469 C 5.257812 9.148438 5.484375 9.242188 5.722656 9.242188 C 5.957031 9.242188 6.183594 9.148438 6.351562 8.980469 Z M 10.0625 5.269531 " fill-opacity="1" fill-rule="nonzero"/></svg>