<svg xmlns="http://www.w3.org/2000/svg" xmlns:xlink="http://www.w3.org/1999/xlink" width="813" zoomAndPan="magnify" viewBox="0 0 609.75 116.249996" height="155" preserveAspectRatio="xMidYMid meet" version="1.2"><defs><clipPath id="afafcbdb6d"><path d="M 1.832031 0 L 304.378906 0 L 304.378906 109.542969 L 1.832031 109.542969 Z M 1.832031 0 "/></clipPath></defs><g id="6d2a50ad16"><g style="fill:#ffffff;fill-opacity:1;"><g transform="translate(197.759387, 66.540531)"><path style="stroke:none" d="M 6.921875 0 L 0.515625 0 L 14.8125 -39.671875 L 21.625 -39.671875 L 35.9375 0 L 29.59375 0 L 26.515625 -8.9375 L 9.984375 -8.9375 Z M 18.25 -33.171875 L 11.859375 -14.359375 L 24.640625 -14.359375 Z M 18.25 -33.171875 "/></g></g><g style="fill:#ffffff;fill-opacity:1;"><g transform="translate(234.249337, 66.540531)"><path style="stroke:none" d="M 21.0625 0.625 C 17.832031 0.625 15.046875 0.0703125 12.703125 -1.03125 C 10.367188 -2.144531 8.429688 -3.65625 6.890625 -5.5625 C 5.347656 -7.46875 4.203125 -9.648438 3.453125 -12.109375 C 2.710938 -14.578125 2.34375 -17.160156 2.34375 -19.859375 C 2.34375 -22.566406 2.710938 -25.148438 3.453125 -27.609375 C 4.203125 -30.066406 5.347656 -32.25 6.890625 -34.15625 C 8.429688 -36.070312 10.367188 -37.570312 12.703125 -38.65625 C 15.046875 -39.75 17.832031 -40.296875 21.0625 -40.296875 C 24.175781 -40.296875 26.882812 -39.773438 29.1875 -38.734375 C 31.5 -37.703125 33.359375 -36.253906 34.765625 -34.390625 C 36.171875 -32.535156 37.0625 -30.394531 37.4375 -27.96875 L 30.734375 -27.96875 C 30.316406 -30.125 29.234375 -31.796875 27.484375 -32.984375 C 25.734375 -34.179688 23.554688 -34.78125 20.953125 -34.78125 C 18.253906 -34.78125 15.992188 -34.140625 14.171875 -32.859375 C 12.347656 -31.578125 10.96875 -29.816406 10.03125 -27.578125 C 9.09375 -25.347656 8.625 -22.773438 8.625 -19.859375 C 8.625 -16.953125 9.09375 -14.363281 10.03125 -12.09375 C 10.96875 -9.820312 12.347656 -8.046875 14.171875 -6.765625 C 15.992188 -5.484375 18.253906 -4.84375 20.953125 -4.84375 C 23.554688 -4.84375 25.734375 -5.472656 27.484375 -6.734375 C 29.234375 -7.992188 30.316406 -9.890625 30.734375 -12.421875 L 37.4375 -12.421875 C 36.851562 -8.441406 35.144531 -5.269531 32.3125 -2.90625 C 29.488281 -0.550781 25.738281 0.625 21.0625 0.625 Z M 21.0625 0.625 "/></g></g><g style="fill:#ffffff;fill-opacity:1;"><g transform="translate(273.598191, 66.540531)"><path style="stroke:none" d="M 29.90625 0 L 3.796875 0 L 3.796875 -39.671875 L 29.90625 -39.671875 L 29.90625 -34.15625 L 9.9375 -34.15625 L 9.9375 -22.625 L 27.65625 -22.625 L 27.65625 -17.15625 L 9.9375 -17.15625 L 9.9375 -5.515625 L 29.90625 -5.515625 Z M 29.90625 0 "/></g></g><g style="fill:#ffffff;fill-opacity:1;"><g transform="translate(305.721819, 66.540531)"><path style="stroke:none" d="M 21.109375 0 L 14.71875 0 L 14.71875 -15.34375 L 0 -39.671875 L 7.171875 -39.671875 L 17.84375 -21.375 L 28.59375 -39.671875 L 35.671875 -39.671875 L 21.109375 -15.34375 Z M 21.109375 0 "/></g></g><g style="fill:#ffffff;fill-opacity:1;"><g transform="translate(341.432068, 66.540531)"><path style="stroke:none" d="M 21.375 0.625 C 18.082031 0.625 15.226562 0.0625 12.8125 -1.0625 C 10.40625 -2.1875 8.421875 -3.703125 6.859375 -5.609375 C 5.304688 -7.515625 4.15625 -9.695312 3.40625 -12.15625 C 2.65625 -14.625 2.28125 -17.175781 2.28125 -19.8125 C 2.28125 -22.476562 2.660156 -25.03125 3.421875 -27.46875 C 4.191406 -29.914062 5.347656 -32.101562 6.890625 -34.03125 C 8.429688 -35.957031 10.40625 -37.484375 12.8125 -38.609375 C 15.226562 -39.734375 18.0625 -40.296875 21.3125 -40.296875 C 26.101562 -40.296875 29.953125 -39.160156 32.859375 -36.890625 C 35.773438 -34.617188 37.71875 -31.664062 38.6875 -28.03125 L 31.875 -28.03125 C 31.113281 -30.144531 29.835938 -31.796875 28.046875 -32.984375 C 26.265625 -34.179688 24.003906 -34.78125 21.265625 -34.78125 C 18.390625 -34.78125 16.003906 -34.097656 14.109375 -32.734375 C 12.222656 -31.367188 10.828125 -29.554688 9.921875 -27.296875 C 9.023438 -25.046875 8.578125 -22.585938 8.578125 -19.921875 C 8.578125 -17.140625 9.0625 -14.601562 10.03125 -12.3125 C 11 -10.03125 12.453125 -8.210938 14.390625 -6.859375 C 16.335938 -5.515625 18.75 -4.84375 21.625 -4.84375 C 25.132812 -4.84375 27.925781 -5.8125 30 -7.75 C 32.082031 -9.6875 33.140625 -12.425781 33.171875 -15.96875 L 24.03125 -15.96875 L 24.03125 -21.15625 L 39.203125 -21.15625 L 39.203125 0 L 33.640625 0 L 33.640625 -5.09375 C 32.253906 -3.050781 30.429688 -1.585938 28.171875 -0.703125 C 25.921875 0.179688 23.65625 0.625 21.375 0.625 Z M 21.375 0.625 "/></g></g><g style="fill:#ffffff;fill-opacity:1;"><g transform="translate(383.691809, 66.540531)"><path style="stroke:none" d="M 25.6875 -17.421875 L 33.078125 0 L 26.421875 0 L 19.765625 -16.328125 L 9.9375 -16.328125 L 9.9375 0 L 3.796875 0 L 3.796875 -39.671875 L 19.765625 -39.671875 C 22.253906 -39.671875 24.441406 -39.265625 26.328125 -38.453125 C 28.222656 -37.640625 29.695312 -36.382812 30.75 -34.6875 C 31.8125 -32.988281 32.34375 -30.800781 32.34375 -28.125 C 32.34375 -25.5 31.742188 -23.273438 30.546875 -21.453125 C 29.347656 -19.628906 27.726562 -18.285156 25.6875 -17.421875 Z M 9.9375 -34.15625 L 9.9375 -21.6875 L 18.921875 -21.6875 C 21.285156 -21.6875 23.097656 -22.226562 24.359375 -23.3125 C 25.628906 -24.40625 26.265625 -25.957031 26.265625 -27.96875 C 26.265625 -29.945312 25.628906 -31.472656 24.359375 -32.546875 C 23.097656 -33.617188 21.285156 -34.15625 18.921875 -34.15625 Z M 9.9375 -34.15625 "/></g></g><g style="fill:#ffffff;fill-opacity:1;"><g transform="translate(418.726326, 66.540531)"><path style="stroke:none" d="M 6.921875 0 L 0.515625 0 L 14.8125 -39.671875 L 21.625 -39.671875 L 35.9375 0 L 29.59375 0 L 26.515625 -8.9375 L 9.984375 -8.9375 Z M 18.25 -33.171875 L 11.859375 -14.359375 L 24.640625 -14.359375 Z M 18.25 -33.171875 "/></g></g><g style="fill:#ffffff;fill-opacity:1;"><g transform="translate(455.216276, 66.540531)"><path style="stroke:none" d="M 9.9375 0 L 3.796875 0 L 3.796875 -39.671875 L 14.296875 -39.671875 L 23.71875 -7.484375 L 33.171875 -39.671875 L 43.6875 -39.671875 L 43.6875 0 L 37.546875 0 L 37.546875 -35.46875 L 26.78125 0 L 20.75 0 L 9.9375 -35.203125 Z M 9.9375 0 "/></g></g><g style="fill:#ffffff;fill-opacity:1;"><g transform="translate(254.727186, 98.627444)"><path style="stroke:none" d="M 3.25 -20.09375 L 9.21875 -3.171875 L 9.453125 -3.171875 L 15.421875 -20.09375 L 17.96875 -20.09375 L 10.59375 0 L 8.078125 0 L 0.703125 -20.09375 Z M 3.25 -20.09375 "/></g></g><g style="fill:#ffffff;fill-opacity:1;"><g transform="translate(273.409126, 98.627444)"><path style="stroke:none" d="M 2.4375 0 L 2.4375 -20.09375 L 14.5625 -20.09375 L 14.5625 -17.9375 L 4.859375 -17.9375 L 4.859375 -11.140625 L 13.9375 -11.140625 L 13.9375 -8.984375 L 4.859375 -8.984375 L 4.859375 -2.15625 L 14.71875 -2.15625 L 14.71875 0 Z M 2.4375 0 "/></g></g><g style="fill:#ffffff;fill-opacity:1;"><g transform="translate(289.932433, 98.627444)"><path style="stroke:none" d="M 18.359375 -20.09375 L 18.359375 0 L 16.015625 0 L 5.0625 -15.78125 L 4.859375 -15.78125 L 4.859375 0 L 2.4375 0 L 2.4375 -20.09375 L 4.78125 -20.09375 L 15.78125 -4.28125 L 15.96875 -4.28125 L 15.96875 -20.09375 Z M 18.359375 -20.09375 "/></g></g><g style="fill:#ffffff;fill-opacity:1;"><g transform="translate(310.733755, 98.627444)"><path style="stroke:none" d="M 1.328125 -17.9375 L 1.328125 -20.09375 L 16.40625 -20.09375 L 16.40625 -17.9375 L 10.078125 -17.9375 L 10.078125 0 L 7.65625 0 L 7.65625 -17.9375 Z M 1.328125 -17.9375 "/></g></g><g style="fill:#ffffff;fill-opacity:1;"><g transform="translate(328.473738, 98.627444)"><path style="stroke:none" d="M 15.625 -20.09375 L 18.046875 -20.09375 L 18.046875 -6.78125 C 18.046875 -5.28125 17.6875 -3.992188 16.96875 -2.921875 C 16.257812 -1.859375 15.3125 -1.046875 14.125 -0.484375 C 12.945312 0.078125 11.648438 0.359375 10.234375 0.359375 C 8.828125 0.359375 7.53125 0.078125 6.34375 -0.484375 C 5.164062 -1.046875 4.21875 -1.859375 3.5 -2.921875 C 2.789062 -3.992188 2.4375 -5.28125 2.4375 -6.78125 L 2.4375 -20.09375 L 4.859375 -20.09375 L 4.859375 -6.78125 C 4.859375 -5.738281 5.109375 -4.851562 5.609375 -4.125 C 6.109375 -3.40625 6.765625 -2.859375 7.578125 -2.484375 C 8.398438 -2.109375 9.285156 -1.921875 10.234375 -1.921875 C 11.191406 -1.921875 12.078125 -2.109375 12.890625 -2.484375 C 13.710938 -2.859375 14.375 -3.40625 14.875 -4.125 C 15.375 -4.851562 15.625 -5.738281 15.625 -6.78125 Z M 15.625 -20.09375 "/></g></g><g style="fill:#ffffff;fill-opacity:1;"><g transform="translate(348.961067, 98.627444)"><path style="stroke:none" d="M 2.4375 0 L 2.4375 -20.09375 L 9.21875 -20.09375 C 10.789062 -20.09375 12.078125 -19.820312 13.078125 -19.28125 C 14.085938 -18.75 14.832031 -18.019531 15.3125 -17.09375 C 15.800781 -16.164062 16.046875 -15.113281 16.046875 -13.9375 C 16.046875 -12.59375 15.738281 -11.425781 15.125 -10.4375 C 14.519531 -9.445312 13.578125 -8.734375 12.296875 -8.296875 L 16.828125 0 L 14.015625 0 L 9.765625 -7.859375 C 9.609375 -7.847656 9.441406 -7.84375 9.265625 -7.84375 L 4.859375 -7.84375 L 4.859375 0 Z M 4.859375 -10.046875 L 9.1875 -10.046875 C 10.789062 -10.046875 11.9375 -10.390625 12.625 -11.078125 C 13.3125 -11.773438 13.65625 -12.726562 13.65625 -13.9375 C 13.65625 -15.144531 13.304688 -16.113281 12.609375 -16.84375 C 11.921875 -17.570312 10.765625 -17.9375 9.140625 -17.9375 L 4.859375 -17.9375 Z M 4.859375 -10.046875 "/></g></g><g style="fill:#ffffff;fill-opacity:1;"><g transform="translate(366.622568, 98.627444)"><path style="stroke:none" d="M 2.4375 0 L 2.4375 -20.09375 L 14.5625 -20.09375 L 14.5625 -17.9375 L 4.859375 -17.9375 L 4.859375 -11.140625 L 13.9375 -11.140625 L 13.9375 -8.984375 L 4.859375 -8.984375 L 4.859375 -2.15625 L 14.71875 -2.15625 L 14.71875 0 Z M 2.4375 0 "/></g></g><g style="fill:#ffffff;fill-opacity:1;"><g transform="translate(383.145874, 98.627444)"><path style="stroke:none" d="M 13.421875 -15.0625 C 13.304688 -16.0625 12.828125 -16.832031 11.984375 -17.375 C 11.148438 -17.925781 10.125 -18.203125 8.90625 -18.203125 C 7.570312 -18.203125 6.5 -17.882812 5.6875 -17.25 C 4.875 -16.625 4.46875 -15.832031 4.46875 -14.875 C 4.46875 -14.15625 4.6875 -13.570312 5.125 -13.125 C 5.570312 -12.6875 6.097656 -12.34375 6.703125 -12.09375 C 7.304688 -11.851562 7.859375 -11.664062 8.359375 -11.53125 L 10.40625 -10.984375 C 10.925781 -10.847656 11.503906 -10.660156 12.140625 -10.421875 C 12.785156 -10.179688 13.40625 -9.851562 14 -9.4375 C 14.59375 -9.019531 15.082031 -8.484375 15.46875 -7.828125 C 15.851562 -7.179688 16.046875 -6.390625 16.046875 -5.453125 C 16.046875 -4.367188 15.765625 -3.390625 15.203125 -2.515625 C 14.640625 -1.640625 13.816406 -0.941406 12.734375 -0.421875 C 11.648438 0.0976562 10.335938 0.359375 8.796875 0.359375 C 6.628906 0.359375 4.910156 -0.148438 3.640625 -1.171875 C 2.378906 -2.191406 1.6875 -3.523438 1.5625 -5.171875 L 4.078125 -5.171875 C 4.140625 -4.421875 4.394531 -3.796875 4.84375 -3.296875 C 5.289062 -2.804688 5.859375 -2.441406 6.546875 -2.203125 C 7.242188 -1.960938 7.992188 -1.84375 8.796875 -1.84375 C 9.722656 -1.84375 10.554688 -1.992188 11.296875 -2.296875 C 12.035156 -2.597656 12.617188 -3.019531 13.046875 -3.5625 C 13.472656 -4.113281 13.6875 -4.757812 13.6875 -5.5 C 13.6875 -6.164062 13.5 -6.707031 13.125 -7.125 C 12.757812 -7.539062 12.269531 -7.878906 11.65625 -8.140625 C 11.050781 -8.398438 10.394531 -8.628906 9.6875 -8.828125 L 7.21875 -9.53125 C 5.644531 -9.988281 4.398438 -10.632812 3.484375 -11.46875 C 2.578125 -12.300781 2.125 -13.394531 2.125 -14.75 C 2.125 -15.875 2.425781 -16.859375 3.03125 -17.703125 C 3.644531 -18.546875 4.46875 -19.195312 5.5 -19.65625 C 6.539062 -20.125 7.703125 -20.359375 8.984375 -20.359375 C 10.273438 -20.359375 11.425781 -20.128906 12.4375 -19.671875 C 13.445312 -19.210938 14.242188 -18.582031 14.828125 -17.78125 C 15.421875 -16.988281 15.738281 -16.082031 15.78125 -15.0625 Z M 13.421875 -15.0625 "/></g></g><g style="fill:#ffffff;fill-opacity:1;"><g transform="translate(400.768124, 98.627444)"><path style="stroke:none" d=""/></g></g><g style="fill:#ffffff;fill-opacity:1;"><g transform="translate(408.539183, 98.627444)"><path style="stroke:none" d="M 2.4375 0 L 2.4375 -20.09375 L 4.859375 -20.09375 L 4.859375 -2.15625 L 14.203125 -2.15625 L 14.203125 0 Z M 2.4375 0 "/></g></g><g style="fill:#ffffff;fill-opacity:1;"><g transform="translate(424.081302, 98.627444)"><path style="stroke:none" d="M 4.859375 -20.09375 L 4.859375 0 L 2.4375 0 L 2.4375 -20.09375 Z M 4.859375 -20.09375 "/></g></g><g style="fill:#ffffff;fill-opacity:1;"><g transform="translate(431.381383, 98.627444)"><path style="stroke:none" d="M 2.4375 -20.09375 L 5.34375 -20.09375 L 12.171875 -3.40625 L 12.40625 -3.40625 L 19.234375 -20.09375 L 22.125 -20.09375 L 22.125 0 L 19.859375 0 L 19.859375 -15.265625 L 19.65625 -15.265625 L 13.375 0 L 11.1875 0 L 4.90625 -15.265625 L 4.703125 -15.265625 L 4.703125 0 L 2.4375 0 Z M 2.4375 -20.09375 "/></g></g><g style="fill:#ffffff;fill-opacity:1;"><g transform="translate(456.578454, 98.627444)"><path style="stroke:none" d="M 4.859375 -20.09375 L 4.859375 0 L 2.4375 0 L 2.4375 -20.09375 Z M 4.859375 -20.09375 "/></g></g><g style="fill:#ffffff;fill-opacity:1;"><g transform="translate(463.878535, 98.627444)"><path style="stroke:none" d="M 1.328125 -17.9375 L 1.328125 -20.09375 L 16.40625 -20.09375 L 16.40625 -17.9375 L 10.078125 -17.9375 L 10.078125 0 L 7.65625 0 L 7.65625 -17.9375 Z M 1.328125 -17.9375 "/></g></g><g style="fill:#ffffff;fill-opacity:1;"><g transform="translate(481.618518, 98.627444)"><path style="stroke:none" d="M 2.4375 0 L 2.4375 -20.09375 L 14.5625 -20.09375 L 14.5625 -17.9375 L 4.859375 -17.9375 L 4.859375 -11.140625 L 13.9375 -11.140625 L 13.9375 -8.984375 L 4.859375 -8.984375 L 4.859375 -2.15625 L 14.71875 -2.15625 L 14.71875 0 Z M 2.4375 0 "/></g></g><g style="fill:#ffffff;fill-opacity:1;"><g transform="translate(498.141825, 98.627444)"><path style="stroke:none" d="M 8.625 0 L 2.4375 0 L 2.4375 -20.09375 L 8.90625 -20.09375 C 10.851562 -20.09375 12.519531 -19.691406 13.90625 -18.890625 C 15.289062 -18.085938 16.351562 -16.9375 17.09375 -15.4375 C 17.832031 -13.945312 18.203125 -12.160156 18.203125 -10.078125 C 18.203125 -7.992188 17.828125 -6.195312 17.078125 -4.6875 C 16.335938 -3.175781 15.253906 -2.015625 13.828125 -1.203125 C 12.398438 -0.398438 10.664062 0 8.625 0 Z M 4.859375 -2.15625 L 8.46875 -2.15625 C 10.96875 -2.15625 12.820312 -2.863281 14.03125 -4.28125 C 15.25 -5.695312 15.859375 -7.628906 15.859375 -10.078125 C 15.859375 -12.515625 15.257812 -14.429688 14.0625 -15.828125 C 12.875 -17.234375 11.101562 -17.9375 8.75 -17.9375 L 4.859375 -17.9375 Z M 4.859375 -2.15625 "/></g></g><path style="fill:none;stroke-width:4;stroke-linecap:butt;stroke-linejoin:miter;stroke:#ffffff;stroke-opacity:1;stroke-miterlimit:4;" d="M -0.00190735 2.000356 L 25.898498 2.000356 " transform="matrix(0.745192,0,0,0.745192,215.677203,87.466382)"/><path style="fill:none;stroke-width:4;stroke-linecap:butt;stroke-linejoin:miter;stroke:#ffffff;stroke-opacity:1;stroke-miterlimit:4;" d="M 0.00208746 2.000356 L 25.897251 2.000356 " transform="matrix(0.745192,0,0,0.745192,537.771882,87.466382)"/><g clip-rule="nonzero" clip-path="url(#afafcbdb6d)"><path style=" stroke:none;fill-rule:evenodd;fill:#ffffff;fill-opacity:1;" d="M 156.851562 104.78125 C 152.460938 100.140625 148.171875 96.933594 143.949219 95.039062 C 177.394531 67.054688 192.960938 31.605469 190.105469 18.535156 C 185.425781 49.109375 155.972656 84.289062 143.929688 95.027344 C 140.265625 93.386719 136.648438 92.742188 133.054688 93.019531 C 143.152344 79.035156 152.773438 23.234375 146.945312 9.878906 C 151.613281 12.210938 156.484375 16.023438 164.707031 14.707031 C 154.523438 11.710938 150.695312 8.632812 142.097656 3.164062 C 150.757812 33.019531 139.074219 77.34375 132.480469 93.070312 C 129.894531 93.339844 127.320312 94.085938 124.75 95.28125 C 125 74.609375 101.445312 17.160156 86.730469 7.929688 C 95.429688 8.03125 101.824219 6.25 109.683594 3.839844 C 115.085938 13.167969 118.753906 24.28125 121.636719 35.285156 C 120.585938 23.257812 115.976562 11.257812 111.574219 0.0664062 C 99.9375 3.472656 89.558594 4.417969 77.925781 4.46875 C 104.171875 27.363281 120.199219 75.71875 123.980469 95.65625 C 122.308594 96.492188 120.640625 97.511719 118.96875 98.71875 C 110.949219 81.515625 60.175781 41.699219 42.28125 41.203125 C 49.832031 36.875 53.175781 32.722656 58.722656 26.652344 C 68.109375 31.945312 82.261719 44.6875 90.332031 52.703125 C 83.320312 42.875 67.90625 29.21875 58.433594 21.816406 C 50.140625 30.660156 41.679688 36.742188 31.683594 42.695312 C 66.777344 49.25 106.210938 84.300781 118.625 98.96875 C 117.636719 99.691406 116.648438 100.472656 115.660156 101.324219 C 82.589844 91.246094 48.839844 88.652344 9.058594 102.894531 C 13.355469 96.5 14.929688 90.734375 15.03125 84.339844 C 33.6875 80.511719 55.386719 77.472656 80.753906 78.679688 C 61.929688 74.75 35.648438 74.121094 12.203125 80.253906 C 10.242188 91.996094 6.308594 101.113281 1.828125 109.5 C 45.503906 94.207031 82.78125 94.074219 117.234375 107.296875 C 131.488281 96.1875 144.90625 96.082031 154.96875 107.613281 C 195.425781 105.027344 263.5625 103.355469 304.019531 106.667969 C 268.789062 102.421875 200.472656 102.316406 156.851562 104.78125 Z M 156.851562 104.78125 "/></g></g></svg>